<?xml version="1.0" standalone="no"?>
<!DOCTYPE svg PUBLIC "-//W3C//DTD SVG 20010904//EN"
 "http://www.w3.org/TR/2001/REC-SVG-20010904/DTD/svg10.dtd">
<svg version="1.0" xmlns="http://www.w3.org/2000/svg"
 width="1024.000000pt" height="1024.000000pt" viewBox="0 0 1024.000000 1024.000000"
 preserveAspectRatio="xMidYMid meet">
<metadata>
Created by potrace 1.14, written by Peter Selinger 2001-2017
</metadata>
<g transform="translate(0.000000,1024.000000) scale(0.100000,-0.100000)"
fill="#000000" stroke="none">
<path d="M4979 9176 c-2 -2 -31 -6 -64 -10 -87 -9 -119 -15 -215 -42 -88 -26
-115 -36 -214 -86 -220 -110 -432 -345 -675 -748 -120 -200 -860 -1685 -1544
-3100 -130 -270 -198 -412 -245 -510 -509 -1079 -612 -1334 -663 -1640 -80
-487 43 -931 370 -1335 299 -368 680 -579 1146 -635 70 -8 396 -6 447 3 16 3
47 8 70 12 64 11 66 11 158 35 259 65 540 199 800 378 75 52 267 200 319 246
132 117 270 248 352 335 l97 101 163 -163 c197 -197 364 -343 503 -442 16 -11
33 -25 40 -30 28 -26 221 -148 320 -204 256 -142 524 -234 785 -269 31 -4 146
-6 256 -6 174 1 216 5 326 27 279 58 489 153 699 316 322 250 588 657 659
1011 19 93 20 100 28 174 27 273 -13 530 -144 916 -28 82 -145 349 -243 555
-118 248 -170 357 -170 360 0 2 -43 92 -95 200 -52 108 -95 199 -95 200 0 2
-36 79 -80 170 -44 91 -80 168 -80 169 0 2 -32 70 -71 152 -151 315 -189 396
-189 399 0 2 -36 78 -80 170 -44 92 -80 168 -80 170 0 2 -40 87 -90 190 -49
103 -90 189 -90 191 0 6 -302 613 -383 769 -144 278 -291 546 -495 905 -58
102 -113 199 -122 215 -201 355 -369 551 -610 712 -119 80 -198 116 -285 130
-30 4 -511 13 -516 9z m277 -531 c95 -8 202 -38 272 -77 106 -60 267 -239 406
-451 20 -31 75 -137 122 -235 88 -183 203 -412 501 -997 191 -375 726 -1448
821 -1645 33 -69 101 -210 151 -313 50 -104 91 -190 91 -191 0 -2 38 -83 85
-180 47 -97 85 -179 85 -181 0 -2 25 -56 55 -120 30 -63 55 -117 55 -119 0 -2
21 -48 46 -103 25 -54 52 -111 59 -128 39 -88 68 -154 124 -285 35 -80 69
-158 76 -175 84 -188 150 -384 161 -479 4 -28 8 -54 10 -58 3 -4 5 -54 5 -111
1 -404 -193 -778 -512 -989 -186 -123 -411 -207 -601 -223 -127 -11 -144 -12
-216 -4 -391 42 -717 204 -1147 568 -108 91 -435 417 -435 433 0 5 26 42 58
81 56 70 161 208 192 253 350 510 522 840 660 1266 146 449 153 839 22 1196
-103 278 -306 517 -556 656 -76 42 -240 105 -315 121 -9 2 -45 10 -81 19 -36
8 -90 18 -120 21 -88 11 -319 13 -390 4 -36 -4 -85 -10 -109 -14 -160 -20
-416 -121 -526 -207 -148 -115 -230 -203 -319 -338 -116 -176 -197 -387 -222
-575 -3 -27 -8 -59 -10 -70 -5 -22 -4 -294 0 -335 12 -106 24 -174 61 -340 10
-47 62 -209 96 -298 148 -390 409 -838 751 -1290 59 -79 108 -147 108 -152 0
-9 -297 -311 -383 -388 -369 -334 -762 -550 -1082 -596 -22 -3 -62 -9 -90 -13
-77 -11 -292 -7 -370 6 -464 80 -861 466 -969 941 -13 58 -19 107 -21 190 -2
85 1 128 21 264 8 59 51 201 91 301 47 120 188 437 286 645 24 52 54 116 66
142 11 26 51 109 87 185 36 76 83 174 104 218 116 246 449 934 777 1605 61
124 167 340 235 480 407 832 736 1480 826 1626 96 157 141 208 271 309 157
122 203 140 365 151 56 4 102 7 103 8 3 2 88 -2 169 -9z m-16 -2945 c146 -24
353 -115 469 -206 129 -101 209 -221 257 -389 19 -65 26 -309 11 -395 -4 -25
-10 -61 -13 -80 -19 -110 -111 -427 -144 -495 -5 -11 -21 -49 -36 -85 -73
-179 -251 -489 -407 -710 -93 -132 -247 -330 -256 -330 -11 0 -65 66 -164 200
-43 58 -84 112 -90 120 -21 26 -182 272 -212 325 -16 28 -40 68 -53 90 -48 84
-171 344 -205 435 -56 151 -113 384 -132 535 -10 75 -7 243 5 305 36 191 123
349 257 467 213 188 444 257 713 213z"/>
</g>
</svg>
